<?xml version="1.0" standalone="no"?>
<!DOCTYPE svg PUBLIC "-//W3C//DTD SVG 20010904//EN"
 "http://www.w3.org/TR/2001/REC-SVG-20010904/DTD/svg10.dtd">
<svg version="1.0" xmlns="http://www.w3.org/2000/svg"
 width="1212.000000pt" height="1280.000000pt" viewBox="0 0 1212.000000 1280.000000"
 preserveAspectRatio="xMidYMid meet">
<metadata>
Created by potrace 1.15, written by Peter Selinger 2001-2017
</metadata>
<g transform="translate(0.000000,1280.000000) scale(0.100000,-0.100000)"
fill="#000000" stroke="none">
<path d="M3395 12794 c-198 -27 -249 -43 -145 -44 213 -1 379 -127 504 -381
48 -97 70 -159 148 -409 135 -432 620 -798 1178 -890 112 -19 159 -22 278 -17
81 3 149 10 155 16 7 7 -5 41 -41 116 -94 193 -206 349 -382 529 -177 182
-337 304 -535 408 -93 50 -104 58 -70 53 237 -34 476 -160 682 -358 157 -151
250 -283 329 -465 18 -42 55 -116 83 -166 138 -251 274 -652 350 -1032 44
-223 81 -570 81 -758 l0 -91 -21 45 c-18 40 -19 50 -9 95 7 28 11 89 9 135 -4
69 -10 97 -35 150 -74 158 -264 301 -529 398 -216 80 -420 121 -635 128 -132
4 -141 3 -100 -9 127 -36 209 -130 402 -457 179 -303 299 -436 442 -493 75
-30 218 -29 309 2 37 12 67 25 67 28 0 18 -94 181 -142 244 -110 146 -286 290
-433 352 -80 35 -44 34 42 0 127 -50 202 -102 323 -223 79 -79 131 -142 168
-201 56 -91 118 -234 127 -290 3 -19 -5 -4 -19 34 -25 69 -36 91 -36 69 0 -7
-11 -12 -25 -12 -14 0 -58 -9 -97 -20 -40 -11 -100 -21 -133 -21 -51 -1 -55
-3 -25 -9 l35 -6 -29 -9 c-39 -11 -139 -63 -147 -77 -4 -6 -13 24 -20 66 -7
43 -15 73 -17 67 -3 -9 68 -448 83 -518 5 -19 -1 -23 -52 -33 -32 -7 -94 -22
-138 -35 -44 -12 -82 -21 -84 -19 -2 2 8 19 22 38 l27 34 -112 -39 c-62 -21
-116 -39 -120 -39 -3 0 -10 9 -13 21 -5 15 0 29 18 47 59 63 70 103 77 276 4
100 11 170 19 184 9 18 -11 8 -80 -39 -159 -107 -207 -159 -245 -267 -14 -38
-22 -52 -18 -32 3 19 14 53 24 75 l17 41 -71 -8 c-58 -6 -73 -4 -88 9 -10 9
-18 12 -18 8 0 -4 -9 0 -20 10 -22 20 -39 13 -22 -8 7 -8 8 -18 4 -22 -4 -5
-2 -5 5 -1 12 7 78 -73 102 -124 9 -21 9 -22 -1 -6 -7 10 -30 41 -51 68 -37
47 -41 50 -75 43 -21 -3 -64 -16 -97 -27 -65 -23 -216 -93 -175 -82 105 29
133 34 195 33 39 -1 80 -4 93 -7 13 -4 -25 -7 -85 -7 -98 0 -120 -4 -233 -39
-130 -41 -162 -56 -119 -56 38 -1 101 -34 134 -71 l30 -34 -35 32 c-35 32 -96
63 -125 63 -9 0 -13 -4 -10 -10 3 -5 -15 -30 -40 -56 -46 -46 -47 -46 -27 -68
10 -11 22 -28 27 -36 8 -17 -37 33 -61 66 -8 12 -18 41 -22 64 l-7 42 -49
-108 c-39 -88 -50 -123 -54 -181 -4 -64 -1 -79 22 -126 17 -36 40 -63 66 -81
22 -14 40 -24 40 -22 0 3 -9 20 -20 39 -27 46 -41 95 -29 102 5 4 9 0 9 -8 0
-8 14 -42 31 -76 25 -50 34 -60 45 -50 11 9 18 6 34 -12 21 -26 26 -49 10 -49
-37 0 -213 116 -284 186 -27 27 -44 40 -38 28 11 -22 79 -86 126 -120 l29 -21
-57 -6 c-104 -11 -175 -55 -271 -169 l-40 -48 -85 71 -85 71 79 -74 c59 -55
76 -77 66 -83 -9 -5 -11 -4 -6 3 11 18 0 15 -52 -14 -83 -46 -123 -77 -217
-167 -40 -37 -74 -66 -76 -65 -3 2 12 -12 33 -30 21 -18 47 -48 60 -65 15 -23
7 -17 -30 19 -29 28 -79 66 -113 84 -43 23 -65 42 -76 66 -9 19 -21 34 -26 34
-5 0 -7 -70 -5 -167 5 -203 21 -257 99 -335 27 -27 41 -44 31 -39 -28 16 -79
74 -100 116 -22 43 -20 44 -42 -25 -28 -89 -49 -300 -29 -300 7 0 10 -2 7 -5
-2 -3 -31 4 -63 15 -32 11 -60 19 -62 17 -2 -2 68 -30 154 -62 87 -32 162 -62
167 -66 5 -5 -12 -33 -39 -65 -34 -40 -42 -53 -25 -44 21 11 134 10 146 -2 2
-3 -12 -51 -32 -109 -19 -57 -46 -142 -58 -189 -16 -58 -28 -84 -37 -83 -8 1
-96 16 -196 33 -200 33 -250 37 -128 10 44 -10 70 -18 58 -19 -26 -1 -59 -54
-113 -180 -47 -111 -80 -262 -80 -365 0 -50 21 -187 39 -256 18 -73 82 -220
106 -244 12 -11 2 -16 -62 -27 -41 -7 -70 -15 -64 -17 6 -2 94 11 196 28 103
18 188 30 190 28 3 -2 9 -38 15 -80 9 -62 54 -286 77 -384 4 -19 -10 -27 -151
-79 -86 -32 -155 -60 -153 -62 3 -3 80 22 127 41 13 5 15 -12 16 -116 2 -125
24 -249 60 -328 39 -86 83 -169 94 -180 3 -3 17 -21 30 -40 67 -95 285 -277
319 -265 16 5 -7 -18 -114 -113 -33 -30 -14 -17 42 28 57 46 100 87 96 93 -3
6 -1 7 5 3 6 -3 27 8 46 25 l36 31 -21 29 c-46 64 -6 22 80 -85 91 -115 263
-303 370 -406 31 -30 43 -44 26 -30 -16 14 -49 42 -71 63 l-42 39 -15 -23 c-9
-12 -13 -27 -10 -32 3 -6 1 -7 -4 -4 -6 4 -47 -39 -93 -96 -45 -56 -58 -75
-28 -42 68 76 124 135 109 114 -9 -13 -8 -23 3 -44 8 -16 13 -32 10 -37 -3 -5
-1 -14 4 -21 6 -7 13 -32 16 -57 2 -25 5 -45 7 -45 14 0 13 -283 -1 -300 -6
-8 -9 -19 -6 -24 4 -5 -10 -50 -30 -100 -53 -132 -44 -171 62 -273 87 -84 132
-124 165 -149 52 -39 138 -99 143 -99 2 0 37 -15 78 -34 40 -18 104 -42 141
-51 66 -18 68 -19 62 -44 -12 -48 3 -17 55 114 53 134 79 188 80 169 0 -25
519 -134 571 -121 15 4 18 1 14 -16 -13 -65 -36 -269 -31 -274 3 -4 6 3 6 14
0 20 2 20 43 8 23 -7 98 -20 167 -29 69 -9 159 -21 200 -27 87 -12 510 -6 645
9 173 20 220 28 242 40 17 9 22 9 26 -1 10 -24 6 40 -8 133 -17 111 -18 133
-6 126 32 -20 574 69 592 96 3 6 31 -53 62 -129 31 -76 56 -130 57 -120 0 9 6
18 13 19 6 0 17 2 22 3 217 40 404 115 483 192 7 7 17 13 22 13 5 0 29 19 54
42 24 24 73 69 109 100 86 76 121 136 113 191 -7 41 -55 137 -68 137 -5 0 -8
11 -8 25 0 14 -4 25 -10 25 -5 0 -10 9 -10 21 0 11 -4 28 -9 37 -5 9 -12 44
-16 77 -3 32 -9 63 -12 68 -3 5 -5 31 -6 58 0 27 -4 52 -10 56 -5 3 -3 10 4
15 11 7 11 11 1 15 -6 2 -9 10 -5 16 8 13 15 66 17 120 0 28 3 34 11 24 28
-37 158 -187 162 -187 4 0 -46 62 -145 180 l-29 34 -49 -40 c-78 -64 -134
-106 -134 -101 0 3 33 31 73 63 133 108 337 316 455 464 l20 24 63 -53 64 -53
-59 55 -59 54 22 32 c12 17 26 29 31 26 4 -3 14 3 21 13 13 15 12 16 -3 3 -22
-16 -24 1 -3 19 8 7 15 9 15 5 0 -7 33 12 73 43 29 22 157 150 182 182 53 67
109 174 142 275 40 118 67 335 42 335 -7 0 -10 2 -7 5 2 3 31 -4 63 -15 86
-30 78 -17 -10 15 -57 20 -75 31 -70 42 34 90 99 427 115 598 l7 80 1 -77 c2
-94 17 -102 58 -32 66 113 108 234 134 388 17 100 7 228 -29 366 -18 73 -82
220 -106 244 -12 11 -2 16 62 27 41 7 70 15 64 17 -6 2 -67 -6 -136 -18 -131
-23 -155 -22 -155 7 0 26 -93 295 -130 377 -22 49 -27 71 -19 77 6 3 59 24
116 45 58 21 100 40 95 42 -6 2 -27 -4 -47 -12 -21 -9 -38 -16 -39 -16 0 0 0
29 2 64 4 66 -11 216 -24 250 -6 15 -4 17 7 11 10 -6 11 -5 4 3 -6 7 -40 18
-75 27 l-65 15 54 -6 c56 -5 115 -29 107 -42 -3 -4 4 -9 15 -9 10 -1 19 0 19
3 0 2 -20 44 -44 92 -24 48 -51 116 -60 152 -27 106 -64 168 -151 256 -61 62
-98 90 -159 120 -78 38 -83 39 -185 39 -93 0 -112 -3 -151 -24 l-45 -24 51
-12 c128 -29 314 -148 449 -287 79 -81 79 -81 12 -20 -37 34 -100 85 -140 113
-40 28 -71 55 -69 60 1 6 -4 9 -11 7 -12 -3 -157 59 -157 68 0 5 42 -11 81
-32 17 -8 33 -13 36 -10 3 2 -18 16 -47 31 -36 18 -60 24 -80 20 -15 -3 -52 0
-81 9 -30 8 -72 17 -93 21 l-40 7 92 48 c127 67 207 117 266 165 50 40 121 73
201 94 46 12 164 14 182 3 6 -4 -21 -7 -60 -7 -47 0 -97 -8 -146 -23 l-73 -23
22 -24 c12 -13 19 -28 16 -33 -3 -6 -35 -34 -71 -63 -36 -29 -63 -54 -60 -57
2 -2 34 22 71 55 l67 60 51 -26 c46 -23 62 -26 156 -26 98 1 110 3 170 33 78
38 126 41 166 10 l29 -23 -21 35 c-22 38 -144 126 -233 167 -115 55 -262 38
-322 -37 -18 -22 -39 -40 -47 -40 -8 0 10 24 39 53 30 29 70 71 89 93 24 28
51 46 85 58 86 29 151 88 197 181 31 62 58 168 57 221 -2 33 -3 34 -6 10 -3
-18 -8 -25 -12 -17 -4 6 -31 14 -59 18 -42 5 -52 10 -55 27 -2 11 -6 -1 -10
-29 -14 -92 -38 -169 -74 -235 -53 -98 -230 -277 -373 -377 -70 -50 -268 -163
-284 -163 -6 0 4 15 21 33 49 51 65 100 70 218 4 75 1 130 -11 190 -27 139
-28 141 -37 89 -8 -42 -84 -170 -102 -170 -5 0 -5 5 -1 12 4 7 3 8 -4 4 -6 -4
-28 2 -49 12 -38 20 -137 51 -223 71 -45 10 -45 10 -5 6 22 -2 55 -8 74 -11
l33 -7 -18 23 c-11 13 -43 49 -71 80 -29 31 -50 61 -45 66 4 4 -2 2 -13 -6
-11 -8 -29 -26 -39 -39 -11 -13 -39 -36 -63 -51 -23 -15 -41 -29 -38 -31 2 -3
-10 -6 -28 -7 -29 -2 -27 0 20 22 29 14 74 47 100 74 55 57 78 70 136 81 l42
7 -100 32 c-159 49 -215 62 -280 62 -120 0 -204 -44 -250 -133 -16 -31 -31
-54 -33 -52 -7 6 58 125 69 125 5 0 8 4 5 9 -6 9 69 131 79 131 7 0 2 -10 -42
-74 -18 -27 -32 -50 -30 -52 1 -2 29 10 61 26 49 25 72 30 140 32 l81 1 -65 7
c-99 11 -139 26 -138 53 1 12 10 32 21 44 11 13 18 26 14 29 -3 3 -20 -10 -38
-30 -17 -20 -34 -34 -37 -31 -3 2 -11 0 -17 -5 -13 -11 -105 -2 -105 9 0 4 -7
16 -15 27 -8 10 -3 -8 10 -41 14 -33 24 -69 24 -80 0 -11 -7 3 -17 30 -40 117
-83 164 -250 278 -88 60 -103 68 -81 41 10 -12 16 -64 20 -173 7 -161 19 -214
59 -271 21 -29 21 -30 3 -81 -10 -28 -23 -53 -29 -56 -16 -6 -154 34 -173 50
-9 8 -23 18 -31 22 -13 8 -13 7 -1 -8 13 -16 11 -17 -30 -11 -24 4 -59 16 -77
26 -25 15 -45 19 -81 16 l-47 -5 61 42 c34 24 78 45 100 48 l40 6 -35 -11
c-45 -15 -45 -15 -30 -32 19 -24 71 -29 113 -11 21 8 42 13 47 10 6 -4 10 -2
10 3 0 5 -23 21 -51 36 -40 22 -58 27 -87 21 -32 -6 -34 -5 -22 10 7 9 29 22
47 30 38 16 73 80 72 130 -1 17 -3 22 -6 13 -2 -10 -8 -18 -13 -18 -5 0 -11 8
-13 18 -3 12 -5 10 -6 -7 -3 -68 -92 -175 -190 -230 l-43 -23 8 23 c4 13 9 51
10 84 1 33 13 126 28 207 14 81 26 155 25 165 -1 10 -11 -34 -24 -97 -15 -78
-23 -105 -26 -85 -4 27 -14 35 -94 75 -49 25 -107 53 -128 62 -36 15 -38 15
-50 -6 -6 -11 -15 -57 -18 -101 l-6 -80 -1 73 c-2 82 -3 79 95 249 56 97 68
112 86 108 62 -14 221 -25 374 -25 188 0 306 17 424 63 35 13 72 27 81 30 38
13 206 134 290 209 130 117 232 250 322 419 25 46 94 194 153 329 60 135 128
278 151 317 56 96 141 186 204 217 l52 26 -60 0 c-32 0 -131 -12 -219 -26
-174 -28 -325 -34 -419 -16 -192 38 -482 -6 -718 -109 -551 -238 -910 -760
-813 -1179 24 -101 23 -101 66 -20 192 354 610 696 1154 943 110 50 385 157
403 157 4 0 -79 -43 -185 -94 -692 -339 -1135 -736 -1407 -1261 -20 -38 -36
-63 -36 -55 0 42 -43 374 -65 503 -44 259 -106 488 -177 652 l-30 70 -1 220
c0 164 4 243 16 311 33 183 106 329 204 412 68 57 75 53 15 -8 -125 -126 -173
-300 -186 -663 l-4 -128 32 6 c53 11 154 62 216 110 122 94 241 288 292 475
25 94 29 235 13 496 -7 128 -7 133 18 186 27 60 71 102 139 130 l43 18 -55 -6
c-66 -8 -119 -26 -180 -61 -47 -28 -290 -211 -396 -301 -140 -117 -272 -328
-316 -502 -40 -163 -9 -346 73 -435 35 -38 39 -47 39 -96 l0 -54 -114 230
c-63 127 -133 259 -157 295 l-43 65 -1 150 c-3 210 -41 337 -149 499 -257 386
-853 680 -1584 781 -104 15 -456 28 -517 19z m2602 -3681 c-3 -10 -5 -2 -5 17
0 19 2 27 5 18 2 -10 2 -26 0 -35z m-10 -65 c-3 -7 -5 -2 -5 12 0 14 2 19 5
13 2 -7 2 -19 0 -25z m1178 -82 c13 -23 26 -54 29 -71 6 -28 5 -28 -8 5 -11
25 -15 30 -16 15 -1 -11 -10 4 -21 34 -10 29 -24 61 -31 70 -12 14 -11 15 5 2
10 -8 29 -33 42 -55z m221 37 c-46 -75 -96 -141 -96 -129 0 9 7 24 15 33 8 10
28 37 45 61 16 23 33 42 36 42 3 0 3 -3 0 -7z m-2562 -126 c22 -38 14 -30 -39
38 -56 73 -63 86 -18 37 21 -23 47 -57 57 -75z m1702 75 c-15 -15 -15 -15 -4
10 7 15 15 23 17 17 2 -6 -4 -18 -13 -27z m-1501 -26 c-10 -20 -22 -33 -27
-30 -6 4 -8 -2 -3 -17 5 -18 4 -20 -4 -10 -8 12 -11 9 -17 -12 -3 -16 -9 -26
-12 -23 -8 9 30 86 39 80 5 -3 9 3 9 13 0 19 20 46 28 39 2 -3 -4 -20 -13 -40z
m1252 -18 c-3 -8 -6 -5 -6 6 -1 11 2 17 5 13 3 -3 4 -12 1 -19z m190 -70 c-3
-7 -5 -2 -5 12 0 14 2 19 5 13 2 -7 2 -19 0 -25z m-1711 6 c18 -14 18 -14 -6
-3 -31 14 -36 19 -24 19 6 0 19 -7 30 -16z m2431 -6 c-3 -8 -6 -5 -6 6 -1 11
2 17 5 13 3 -3 4 -12 1 -19z m13 -35 c-11 -17 -11 -17 -6 0 3 10 7 26 7 35 1
15 2 15 6 0 2 -10 -1 -25 -7 -35z m-2342 12 c-3 -3 -9 2 -12 12 -6 14 -5 15 5
6 7 -7 10 -15 7 -18z m-43 3 c5 4 5 1 1 -5 -4 -7 -3 -13 2 -13 10 0 66 -99 59
-106 -2 -3 -10 10 -18 28 -7 18 -29 51 -49 73 -19 22 -28 34 -19 28 9 -7 20
-9 24 -5z m2669 -3 c-69 -15 -126 -41 -175 -82 -28 -22 -30 -23 -14 -4 41 48
156 100 220 100 18 -1 6 -6 -31 -14z m-2527 -17 c-3 -8 -6 -5 -6 6 -1 11 2 17
5 13 3 -3 4 -12 1 -19z m20 0 c-3 -8 -6 -5 -6 6 -1 11 2 17 5 13 3 -3 4 -12 1
-19z m2230 -50 c-3 -7 -5 -2 -5 12 0 14 2 19 5 13 2 -7 2 -19 0 -25z m-2544
15 c-7 -2 -21 -2 -30 0 -10 3 -4 5 12 5 17 0 24 -2 18 -5z m112 -33 c22 -11
56 -33 75 -50 32 -28 30 -27 -17 5 -28 20 -75 45 -105 55 -29 11 -39 18 -23
15 17 -4 48 -15 70 -25z m172 -57 c-3 -10 -5 -4 -5 12 0 17 2 24 5 18 2 -7 2
-21 0 -30z m2836 -30 c-13 -2 -33 -2 -45 0 -13 2 -3 4 22 4 25 0 35 -2 23 -4z
m-3326 -89 c-3 -3 -12 -4 -19 -1 -8 3 -5 6 6 6 11 1 17 -2 13 -5z m86 -1 c-7
-2 -19 -2 -25 0 -7 3 -2 5 12 5 14 0 19 -2 13 -5z m3560 -29 c13 -4 8 -15 -20
-52 -47 -62 -83 -139 -83 -180 0 -40 21 -92 45 -112 16 -13 20 -11 47 20 40
48 86 140 94 189 4 23 10 44 15 46 10 7 0 -59 -18 -110 -20 -59 -56 -115 -102
-159 l-40 -39 -75 58 c-42 32 -76 59 -76 61 0 2 30 40 68 85 37 44 67 88 67
97 0 10 5 17 12 17 6 0 21 14 34 30 l23 30 -25 -23 -26 -22 -11 25 c-6 14 -19
25 -27 25 -24 0 -72 -27 -118 -68 -29 -25 -34 -28 -17 -8 65 73 172 114 233
90z m-3856 -56 c-3 -8 -6 -5 -6 6 -1 11 2 17 5 13 3 -3 4 -12 1 -19z m-160
-40 c-3 -7 -5 -2 -5 12 0 14 2 19 5 13 2 -7 2 -19 0 -25z m94 -244 c27 -13 30
-19 23 -42 -4 -15 -10 -40 -13 -57 -4 -19 -29 -52 -72 -92 -63 -60 -68 -63
-116 -63 -27 0 -71 -7 -98 -14 l-48 -15 -73 60 c-64 54 -75 59 -94 49 -12 -6
-24 -10 -26 -7 -3 2 13 11 34 20 31 12 53 14 108 7 165 -22 242 0 308 85 20
27 36 52 36 58 0 12 -98 2 -189 -19 -35 -8 -66 -13 -69 -10 -3 3 19 17 49 31
66 30 190 35 240 9z m3977 -25 c-10 -5 -37 -16 -60 -25 -37 -13 -41 -13 -28 0
8 8 31 19 50 24 46 13 59 14 38 1z m-4193 -329 c-3 -5 -11 -10 -16 -10 -6 0
-7 5 -4 10 3 6 11 10 16 10 6 0 7 -4 4 -10z m-525 -200 c6 -11 8 -20 6 -20 -3
0 -10 9 -16 20 -6 11 -8 20 -6 20 3 0 10 -9 16 -20z m5160 -100 c0 -5 -2 -10
-4 -10 -3 0 -8 5 -11 10 -3 6 -1 10 4 10 6 0 11 -4 11 -10z m-5213 -149 c27
-24 39 -39 27 -33 -30 16 -90 85 -114 131 -31 62 -23 63 10 1 17 -30 51 -75
77 -99z m5286 142 c-7 -2 -19 -2 -25 0 -7 3 -2 5 12 5 14 0 19 -2 13 -5z m125
-10 c-15 -2 -42 -2 -60 0 -18 2 -6 4 27 4 33 0 48 -2 33 -4z m-5385 -200 c-7
-2 -19 -2 -25 0 -7 3 -2 5 12 5 14 0 19 -2 13 -5z m5402 -153 c19 -38 33 -70
30 -70 -2 0 -21 32 -40 70 -19 39 -33 70 -30 70 2 0 21 -31 40 -70z m-5435
-63 c0 -2 -12 -14 -27 -28 l-28 -24 24 28 c23 25 31 32 31 24z m5647 -529 c-3
-8 -6 -5 -6 6 -1 11 2 17 5 13 3 -3 4 -12 1 -19z m10 -40 c-3 -8 -6 -5 -6 6
-1 11 2 17 5 13 3 -3 4 -12 1 -19z m10 -50 c-3 -7 -5 -2 -5 12 0 14 2 19 5 13
2 -7 2 -19 0 -25z m10 -40 c-3 -8 -6 -5 -6 6 -1 11 2 17 5 13 3 -3 4 -12 1
-19z m10 -55 c-3 -10 -5 -4 -5 12 0 17 2 24 5 18 2 -7 2 -21 0 -30z m10 -65
c-3 -7 -5 -2 -5 12 0 14 2 19 5 13 2 -7 2 -19 0 -25z m10 -65 c-3 -10 -5 -2
-5 17 0 19 2 27 5 18 2 -10 2 -26 0 -35z m10 -80 c-3 -10 -5 -4 -5 12 0 17 2
24 5 18 2 -7 2 -21 0 -30z m10 -115 c-2 -18 -4 -6 -4 27 0 33 2 48 4 33 2 -15
2 -42 0 -60z m-5900 50 c-3 -8 -6 -5 -6 6 -1 11 2 17 5 13 3 -3 4 -12 1 -19z
m5910 -335 c-2 -38 -3 -7 -3 67 0 74 1 105 3 68 2 -38 2 -98 0 -135z m-5910
-200 c-3 -10 -5 -2 -5 17 0 19 2 27 5 18 2 -10 2 -26 0 -35z m122 -588 c0 -5
-4 -3 -9 5 -5 8 -9 22 -9 30 0 16 17 -16 18 -35z m5612 -137 c-48 -128 -119
-288 -127 -288 -2 0 2 15 10 33 72 162 98 226 126 312 18 55 35 95 37 89 2 -6
-19 -72 -46 -146z m-140 -321 c-10 -9 -11 -8 -5 6 3 10 9 15 12 12 3 -3 0 -11
-7 -18z m-52 -98 c-59 -107 -171 -281 -176 -276 -2 3 24 47 57 98 34 52 83
131 108 176 25 46 47 81 49 79 2 -2 -15 -36 -38 -77z m-5099 -139 c6 -11 8
-20 6 -20 -3 0 -10 9 -16 20 -6 11 -8 20 -6 20 3 0 10 -9 16 -20z m635 -720
c10 -11 16 -20 13 -20 -3 0 -13 9 -23 20 -10 11 -16 20 -13 20 3 0 13 -9 23
-20z"/>
<path d="M8033 8513 c9 -2 23 -2 30 0 6 3 -1 5 -18 5 -16 0 -22 -2 -12 -5z"/>
<path d="M7960 9514 c-264 -24 -409 -94 -479 -232 -23 -46 -35 -129 -23 -161
8 -23 9 -22 34 20 48 81 133 153 241 202 58 26 44 12 -25 -25 -34 -18 -84 -54
-112 -79 -49 -45 -124 -154 -114 -165 3 -2 30 -9 59 -13 188 -30 402 117 480
330 16 45 34 70 68 99 25 22 39 39 31 39 -8 -1 -80 -7 -160 -15z"/>
<path d="M4063 9442 c37 -25 50 -45 76 -117 75 -206 280 -348 469 -324 29 4
56 10 60 14 12 11 -38 91 -91 145 -29 28 -86 72 -127 96 -89 53 -85 57 8 10
84 -42 158 -108 197 -175 17 -28 34 -51 39 -51 16 0 0 143 -21 185 -63 123
-226 207 -427 220 -45 3 -110 8 -146 11 l-65 4 28 -18z"/>
<path d="M6621 9334 c0 -11 3 -14 6 -6 3 7 2 16 -1 19 -3 4 -6 -2 -5 -13z"/>
<path d="M7181 9179 c-6 -18 -9 -34 -7 -36 2 -2 9 10 15 28 6 18 9 34 7 36 -2
2 -9 -10 -15 -28z"/>
<path d="M4926 9130 c4 -14 13 -38 20 -55 11 -24 13 -25 8 -5 -4 14 -13 39
-20 55 -11 24 -13 25 -8 5z"/>
<path d="M6671 9064 c-13 -48 -13 -50 0 -97 9 -34 12 -37 26 -25 21 17 63 107
62 133 0 11 -3 15 -5 9 -5 -13 -56 -6 -66 9 -3 6 -11 -7 -17 -29z"/>
<path d="M8620 9035 c-34 -80 -53 -200 -46 -288 7 -85 43 -208 63 -214 18 -6
118 121 162 206 41 81 82 199 80 235 -1 14 -3 16 -6 5 -3 -13 -12 -14 -51 -8
-26 5 -81 13 -122 19 -41 7 -76 13 -78 15 -2 1 4 19 12 39 8 20 13 36 10 36
-3 0 -13 -20 -24 -45z"/>
<path d="M9062 9020 c0 -19 2 -27 5 -17 2 9 2 25 0 35 -3 9 -5 1 -5 -18z"/>
<path d="M8882 9020 c0 -14 2 -19 5 -12 2 6 2 18 0 25 -3 6 -5 1 -5 -13z"/>
<path d="M8912 9020 c0 -14 2 -19 5 -12 2 6 2 18 0 25 -3 6 -5 1 -5 -13z"/>
<path d="M4628 8983 c7 -3 16 -2 19 1 4 3 -2 6 -13 5 -11 0 -14 -3 -6 -6z"/>
<path d="M3595 8817 c1 -145 3 -168 24 -220 40 -101 107 -158 203 -173 l43 -7
-48 43 c-54 48 -88 102 -117 185 -23 67 -23 65 -12 65 5 0 14 -19 21 -42 24
-83 97 -185 152 -213 27 -15 28 -14 39 21 19 55 9 161 -20 218 -39 77 -111
150 -189 189 -38 20 -71 34 -73 32 -2 -2 -5 8 -6 23 -1 14 -6 30 -10 34 -4 4
-7 -66 -7 -155z"/>
<path d="M3960 8543 c18 -24 35 -43 37 -43 9 0 -18 37 -43 60 -24 22 -23 20 6
-17z"/>
<path d="M3485 8200 c10 -11 20 -20 23 -20 3 0 -3 9 -13 20 -10 11 -20 20 -23
20 -3 0 3 -9 13 -20z"/>
<path d="M8480 7946 c0 -2 7 -7 16 -10 8 -3 12 -2 9 4 -6 10 -25 14 -25 6z"/>
<path d="M2920 7192 c8 -5 26 -13 40 -16 17 -5 20 -4 10 2 -8 5 -26 13 -40 16
-17 5 -20 4 -10 -2z"/>
<path d="M9090 7180 c-8 -5 -10 -10 -5 -10 6 0 17 5 25 10 8 5 11 10 5 10 -5
0 -17 -5 -25 -10z"/>
<path d="M9378 6653 c6 -2 18 -2 25 0 6 3 1 5 -13 5 -14 0 -19 -2 -12 -5z"/>
<path d="M9318 6643 c6 -2 18 -2 25 0 6 3 1 5 -13 5 -14 0 -19 -2 -12 -5z"/>
<path d="M2768 6623 c6 -2 18 -2 25 0 6 3 1 5 -13 5 -14 0 -19 -2 -12 -5z"/>
<path d="M2823 6613 c9 -2 23 -2 30 0 6 3 -1 5 -18 5 -16 0 -22 -2 -12 -5z"/>
<path d="M9102 5535 c6 -6 167 -35 193 -34 11 0 -20 9 -70 19 -91 19 -132 24
-123 15z"/>
<path d="M9328 5493 c7 -3 16 -2 19 1 4 3 -2 6 -13 5 -11 0 -14 -3 -6 -6z"/>
<path d="M2778 5473 c6 -2 18 -2 25 0 6 3 1 5 -13 5 -14 0 -19 -2 -12 -5z"/>
<path d="M2718 5463 c7 -3 16 -2 19 1 4 3 -2 6 -13 5 -11 0 -14 -3 -6 -6z"/>
<path d="M9150 4942 c8 -5 26 -13 40 -16 17 -5 20 -4 10 2 -8 5 -26 13 -40 16
-17 5 -20 4 -10 -2z"/>
<path d="M8625 3920 c10 -11 20 -20 23 -20 3 0 -3 9 -13 20 -10 11 -20 20 -23
20 -3 0 3 -9 13 -20z"/>
<path d="M3859 3423 c-13 -16 -12 -17 4 -4 16 13 21 21 13 21 -2 0 -10 -8 -17
-17z"/>
<path d="M6741 2214 c0 -11 3 -14 6 -6 3 7 2 16 -1 19 -3 4 -6 -2 -5 -13z"/>
</g>
</svg>
