<?xml version="1.0" standalone="no"?>
<!DOCTYPE svg PUBLIC "-//W3C//DTD SVG 20010904//EN"
 "http://www.w3.org/TR/2001/REC-SVG-20010904/DTD/svg10.dtd">
<svg version="1.0" xmlns="http://www.w3.org/2000/svg"
 width="1280.000000pt" height="1147.000000pt" viewBox="0 0 1280.000000 1147.000000"
 preserveAspectRatio="xMidYMid meet">
<g transform="translate(0.000000,1147.000000) scale(0.100000,-0.100000)"
fill="#000000" stroke="none">
<path d="M4435 11358 c-397 -405 -945 -1130 -1246 -1650 -175 -302 -313 -620
-355 -815 -23 -110 -23 -254 0 -323 115 -342 632 -1008 1507 -1946 326 -347
551 -576 560 -567 5 5 62 136 128 293 535 1277 1024 2331 1290 2782 70 118
154 223 280 348 451 446 1129 880 1375 880 26 0 28 2 16 14 -112 103 -2524
890 -3205 1045 -77 18 -154 36 -171 42 -57 17 -67 11 -179 -103z"/>
<path d="M8266 10194 c-236 -43 -435 -150 -723 -389 -174 -145 -530 -507 -640
-652 -32 -42 -42 -24 120 -237 306 -404 559 -828 641 -1076 57 -172 58 -310 4
-386 -78 -109 -382 -301 -585 -369 -46 -16 -83 -31 -83 -34 0 -7 2089 -771
2105 -771 12 1 1557 2130 1553 2140 -2 4 -149 -28 -328 -71 -179 -43 -337 -78
-352 -78 -32 -1 -31 -6 -48 199 -43 503 -153 969 -284 1204 -61 110 -114 158
-262 242 -271 153 -502 246 -688 279 -110 19 -322 18 -430 -1z"/>
<path d="M1490 6935 c-701 -113 -1279 -204 -1283 -205 -21 -1 23 -30 283 -190
155 -95 291 -180 302 -190 26 -21 30 -14 -91 -157 -195 -230 -430 -565 -535
-763 -72 -137 -109 -229 -141 -346 -30 -115 -31 -136 -6 -217 10 -34 40 -132
66 -217 108 -359 220 -565 402 -741 288 -278 574 -365 1241 -376 264 -5 647 8
661 23 2 2 12 66 22 141 101 787 274 1351 467 1525 80 72 120 83 255 68 198
-22 409 -80 559 -156 42 -21 68 -29 67 -22 0 7 -211 465 -468 1018 -460 989
-468 1005 -497 1007 -16 1 -603 -90 -1304 -202z"/>
<path d="M8710 5773 c0 -5 43 -115 96 -244 576 -1406 1032 -2665 1106 -3055
20 -104 16 -580 -5 -764 -63 -534 -173 -940 -304 -1123 -19 -27 -32 -51 -30
-53 8 -8 197 71 414 172 935 435 2402 1209 2715 1432 58 41 80 63 89 90 29 89
-42 873 -126 1392 -99 609 -231 1096 -385 1417 -141 295 -250 404 -477 479
-431 141 -1442 238 -2715 261 -253 4 -378 3 -378 -4z"/>
<path d="M5410 4279 c-1131 -469 -2328 -916 -2860 -1069 -333 -96 -453 -110
-788 -92 -609 33 -1183 168 -1404 329 -27 19 -48 33 -48 30 0 -28 128 -319
283 -643 462 -966 1144 -2244 1336 -2505 l49 -66 64 -7 c124 -13 583 19 983
69 1076 135 1908 397 2151 678 115 134 196 433 263 967 69 553 128 1617 119
2167 l-3 202 -145 -60z"/>
<path d="M6865 3294 c-550 -256 -1004 -469 -1009 -474 -6 -6 -2 -60 12 -147
12 -76 49 -309 82 -518 33 -209 81 -506 105 -660 230 -1451 204 -1300 220
-1283 7 7 81 126 165 263 170 277 208 335 218 335 4 0 59 -43 122 -96 363
-303 746 -554 985 -643 120 -45 240 -74 282 -68 52 6 360 98 480 143 239 89
399 187 544 333 222 222 320 451 369 861 29 238 20 1031 -12 1051 -6 4 -43 9
-83 13 -40 4 -157 20 -261 36 -782 123 -1257 299 -1367 504 -59 110 12 493
140 749 21 42 29 67 21 66 -7 0 -463 -209 -1013 -465z"/>
</g>
</svg>
